<svg xmlns="http://www.w3.org/2000/svg" viewBox="0 0 96 96"><defs><linearGradient id="s" x1="0" y1="0" x2="1" y2="1"><stop offset="0" stop-color="#f1f3f5"/><stop offset=".5" stop-color="#b3bac2"/><stop offset="1" stop-color="#7d8690"/></linearGradient></defs><rect width="96" height="96" rx="18" fill="#1f3a60"/><g transform="translate(3 6)"><path d="M44 8H22C12 8 6 14 6 24v28c0 10 6 16 16 16h22V56H24c-4 0-6-2-6-6V26c0-4 2-6 6-6h20z" fill="url(#s)"/><path d="M50 8h36l-4 12H62v6h-8z" fill="url(#s)"/><path d="M54 30l30-6-24 18h-8z" fill="#e1161c"/><path d="M50 46h26l-4 10H62v2h26l-4 10H50z" fill="url(#s)"/></g></svg>
